<svg width="95" height="24" viewBox="0 0 95 24" fill="none" xmlns="http://www.w3.org/2000/svg">
<path d="M35.207 19.2181C34.9494 18.801 34.6427 18.3533 34.287 17.8749C33.9435 17.3842 33.5632 16.8997 33.1462 16.4213C32.7414 15.9306 32.3182 15.4644 31.8766 15.0228C31.4349 14.569 30.9933 14.1703 30.5517 13.8268V19.2181H27.6813V6.46668H30.5517V11.2876C31.3 10.5025 32.0483 9.68674 32.7966 8.84032C33.5571 7.98164 34.2625 7.19043 34.9126 6.46668H38.3167C37.4457 7.4971 36.5686 8.49072 35.6854 9.44753C34.8145 10.4044 33.8945 11.3673 32.9254 12.3364C33.9435 13.1828 34.9249 14.1887 35.8694 15.354C36.8262 16.5194 37.7401 17.8074 38.6111 19.2181H35.207Z" fill="#1A4C6C"/>
<path d="M48.4379 14.3604C48.4379 15.121 48.3275 15.8202 48.1066 16.4581C47.8858 17.0837 47.5669 17.6234 47.1498 18.0773C46.7328 18.5189 46.2298 18.8624 45.641 19.1077C45.0645 19.353 44.4143 19.4757 43.6906 19.4757C42.9791 19.4757 42.3289 19.353 41.7401 19.1077C41.1636 18.8624 40.6668 18.5189 40.2497 18.0773C39.8326 17.6234 39.5076 17.0837 39.2745 16.4581C39.0414 15.8202 38.9249 15.121 38.9249 14.3604C38.9249 13.5999 39.0414 12.9068 39.2745 12.2812C39.5198 11.6556 39.851 11.122 40.2681 10.6804C40.6974 10.2387 41.2004 9.89528 41.7769 9.64994C42.3657 9.4046 43.0036 9.28193 43.6906 9.28193C44.3898 9.28193 45.0277 9.4046 45.6042 9.64994C46.193 9.89528 46.696 10.2387 47.113 10.6804C47.5301 11.122 47.8552 11.6556 48.0882 12.2812C48.3213 12.9068 48.4379 13.5999 48.4379 14.3604ZM45.641 14.3604C45.641 13.514 45.4693 12.8516 45.1258 12.3732C44.7946 11.8825 44.3162 11.6372 43.6906 11.6372C43.065 11.6372 42.5804 11.8825 42.2369 12.3732C41.8935 12.8516 41.7217 13.514 41.7217 14.3604C41.7217 15.2068 41.8935 15.8815 42.2369 16.3845C42.5804 16.8751 43.065 17.1205 43.6906 17.1205C44.3162 17.1205 44.7946 16.8751 45.1258 16.3845C45.4693 15.8815 45.641 15.2068 45.641 14.3604Z" fill="#1A4C6C"/>
<path d="M56.8086 14.3052C56.8086 12.5388 56.1584 11.6556 54.8581 11.6556C54.576 11.6556 54.2939 11.6924 54.0117 11.766C53.7418 11.8396 53.521 11.9316 53.3493 12.042V17.0285C53.4842 17.053 53.656 17.0775 53.8645 17.1021C54.0731 17.1143 54.3 17.1205 54.5453 17.1205C55.2936 17.1205 55.8579 16.8629 56.2382 16.3477C56.6184 15.8324 56.8086 15.1516 56.8086 14.3052ZM59.6054 14.3788C59.6054 15.1516 59.4889 15.8508 59.2558 16.4765C59.035 17.1021 58.7099 17.6357 58.2806 18.0773C57.8513 18.5189 57.3238 18.8624 56.6982 19.1077C56.0726 19.3408 55.3611 19.4573 54.5637 19.4573C54.2325 19.4573 53.8829 19.4389 53.5149 19.4021C53.1592 19.3776 52.8034 19.3408 52.4477 19.2917C52.1042 19.2426 51.773 19.1874 51.4541 19.1261C51.1351 19.0525 50.853 18.9789 50.6077 18.9053V5.38106L53.3493 4.93945V9.76034C53.656 9.6254 53.9749 9.52113 54.3061 9.44753C54.6373 9.37393 54.9931 9.33713 55.3733 9.33713C56.0603 9.33713 56.6675 9.4598 57.195 9.70514C57.7225 9.93821 58.1641 10.2755 58.5198 10.7172C58.8755 11.1588 59.1454 11.6924 59.3294 12.318C59.5134 12.9313 59.6054 13.6183 59.6054 14.3788Z" fill="#1A4C6C"/>
<path d="M70.8115 14.3604C70.8115 15.121 70.7011 15.8202 70.4803 16.4581C70.2595 17.0837 69.9406 17.6234 69.5235 18.0773C69.1064 18.5189 68.6035 18.8624 68.0147 19.1077C67.4381 19.353 66.788 19.4757 66.0642 19.4757C65.3527 19.4757 64.7026 19.353 64.1138 19.1077C63.5372 18.8624 63.0404 18.5189 62.6234 18.0773C62.2063 17.6234 61.8812 17.0837 61.6481 16.4581C61.4151 15.8202 61.2985 15.121 61.2985 14.3604C61.2985 13.5999 61.4151 12.9068 61.6481 12.2812C61.8935 11.6556 62.2247 11.122 62.6418 10.6804C63.0711 10.2387 63.574 9.89528 64.1506 9.64994C64.7394 9.4046 65.3773 9.28193 66.0642 9.28193C66.7634 9.28193 67.4013 9.4046 67.9779 9.64994C68.5667 9.89528 69.0696 10.2387 69.4867 10.6804C69.9038 11.122 70.2288 11.6556 70.4619 12.2812C70.695 12.9068 70.8115 13.5999 70.8115 14.3604ZM68.0147 14.3604C68.0147 13.514 67.8429 12.8516 67.4995 12.3732C67.1682 11.8825 66.6898 11.6372 66.0642 11.6372C65.4386 11.6372 64.9541 11.8825 64.6106 12.3732C64.2671 12.8516 64.0954 13.514 64.0954 14.3604C64.0954 15.2068 64.2671 15.8815 64.6106 16.3845C64.9541 16.8751 65.4386 17.1205 66.0642 17.1205C66.6898 17.1205 67.1682 16.8751 67.4995 16.3845C67.8429 15.8815 68.0147 15.2068 68.0147 14.3604Z" fill="#1A4C6C"/>
<path d="M79.3846 8.67472C78.0475 8.67472 77.0784 9.04886 76.4774 9.79714C75.8886 10.5332 75.5942 11.5452 75.5942 12.8332C75.5942 13.4588 75.6678 14.0292 75.815 14.5444C75.9622 15.0474 76.183 15.4828 76.4774 15.8508C76.7718 16.2189 77.1398 16.5071 77.5814 16.7157C78.023 16.9119 78.5382 17.0101 79.127 17.0101C79.446 17.0101 79.7158 17.0039 79.9366 16.9917C80.1697 16.9794 80.3721 16.9549 80.5438 16.9181V12.4836H83.4143V18.7949C83.0708 18.9298 82.5188 19.0709 81.7583 19.2181C80.9977 19.3776 80.0593 19.4573 78.943 19.4573C77.9862 19.4573 77.1153 19.3101 76.3302 19.0157C75.5574 18.7213 74.8949 18.292 74.3429 17.7277C73.7909 17.1634 73.3616 16.4703 73.0549 15.6484C72.7605 14.8266 72.6133 13.8881 72.6133 12.8332C72.6133 11.766 72.7789 10.8214 73.1101 9.99954C73.4413 9.17766 73.8952 8.48458 74.4717 7.92031C75.0483 7.34376 75.723 6.90829 76.4958 6.61388C77.2809 6.31948 78.115 6.17227 78.9982 6.17227C79.5993 6.17227 80.139 6.21521 80.6174 6.30108C81.1081 6.37468 81.5252 6.46668 81.8687 6.57708C82.2244 6.67522 82.5127 6.77949 82.7335 6.88989C82.9666 7.00029 83.1322 7.08616 83.2303 7.14749L82.4023 9.44753C82.0097 9.239 81.5559 9.06113 81.0407 8.91392C80.5377 8.75446 79.9857 8.67472 79.3846 8.67472Z" fill="#1A4C6C"/>
<path d="M95 14.3604C95 15.121 94.8896 15.8202 94.6688 16.4581C94.448 17.0837 94.1291 17.6234 93.712 18.0773C93.2949 18.5189 92.792 18.8624 92.2032 19.1077C91.6266 19.353 90.9765 19.4757 90.2528 19.4757C89.5413 19.4757 88.8911 19.353 88.3023 19.1077C87.7258 18.8624 87.229 18.5189 86.8119 18.0773C86.3948 17.6234 86.0697 17.0837 85.8367 16.4581C85.6036 15.8202 85.4871 15.121 85.4871 14.3604C85.4871 13.5999 85.6036 12.9068 85.8367 12.2812C86.082 11.6556 86.4132 11.122 86.8303 10.6804C87.2596 10.2387 87.7626 9.89528 88.3391 9.64994C88.9279 9.4046 89.5658 9.28193 90.2528 9.28193C90.952 9.28193 91.5898 9.4046 92.1664 9.64994C92.7552 9.89528 93.2581 10.2387 93.6752 10.6804C94.0923 11.122 94.4174 11.6556 94.6504 12.2812C94.8835 12.9068 95 13.5999 95 14.3604ZM92.2032 14.3604C92.2032 13.514 92.0314 12.8516 91.688 12.3732C91.3568 11.8825 90.8784 11.6372 90.2528 11.6372C89.6271 11.6372 89.1426 11.8825 88.7991 12.3732C88.4557 12.8516 88.2839 13.514 88.2839 14.3604C88.2839 15.2068 88.4557 15.8815 88.7991 16.3845C89.1426 16.8751 89.6271 17.1205 90.2528 17.1205C90.8784 17.1205 91.3568 16.8751 91.688 16.3845C92.0314 15.8815 92.2032 15.2068 92.2032 14.3604Z" fill="#1A4C6C"/>
<path d="M6.8563 1.35891V0H0V6.91662C0.137198 6.67119 0.286932 6.43298 0.448604 6.20293C1.20919 5.09774 3.15019 2.3472 6.8563 1.35891Z" fill="url(#paint0_linear_528_3816)"/>
<path d="M22 12.9399V0C21.5069 0 21.0283 0.018015 20.5559 0.0360316C19.3181 0.082741 18.149 0.168152 17.0488 0.292266C16.5248 0.350319 16.0173 0.41638 15.5201 0.49245C10.4698 1.25315 7.12773 2.78055 4.93474 4.32797C3.75217 5.14229 2.71989 6.14463 1.88148 7.29268C1.53653 7.76139 1.24854 8.26721 1.02326 8.80006C1.02326 8.82208 1.00883 8.8401 1.0047 8.85612V8.87413C1.00564 8.88345 1.00564 8.89284 1.0047 8.90216C0.728739 9.47857 0.507759 10.0783 0.344533 10.6938C0.309461 10.8319 0.272329 10.9721 0.243447 11.1122C0.214565 11.2523 0.185675 11.3924 0.158856 11.5346C0.146478 11.6006 0.136167 11.6687 0.123788 11.7348C0.103158 11.8829 0.0825327 12.031 0.0639656 12.1812C0.0639656 12.2572 0.0495149 12.3353 0.0412628 12.4134C0.0123806 12.7197 0 13.0299 0 13.3442V13.4003C0 13.4944 0 13.5885 0 13.6825C0 13.7366 0 13.7906 0 13.8447C0 13.8987 1.51094e-06 13.9728 0.0144426 14.0349C0.0288837 14.0969 0.0144426 14.1229 0.0144426 14.167C0.0144426 14.2571 0.0268303 14.3471 0.0371454 14.4372C0.0474604 14.5273 0.05777 14.6174 0.0701481 14.7055C0.0907782 14.8836 0.121726 15.0618 0.150609 15.238C0.200121 15.5002 0.257882 15.7604 0.328025 16.0167C0.346592 16.0948 0.37135 16.1708 0.394043 16.2469C0.39287 16.2595 0.39287 16.2723 0.394043 16.2849C0.41261 16.347 0.429116 16.409 0.447683 16.4691C0.466251 16.5291 0.491008 16.5992 0.513701 16.6693C0.561151 16.8154 0.612716 16.9615 0.67048 17.1037C0.707614 17.2038 0.748878 17.3039 0.790138 17.404L0.864404 17.5721C0.920105 17.7002 0.979944 17.8263 1.0439 17.9525C1.10785 18.0786 1.14499 18.1526 1.19862 18.2527C1.27702 18.3969 1.35746 18.541 1.44411 18.6831C1.45093 18.6914 1.45585 18.7009 1.45855 18.7112C1.53901 18.8453 1.6236 18.9794 1.71231 19.1115C1.76595 19.1916 1.81959 19.2717 1.87735 19.3517C1.92513 19.4274 1.97749 19.5003 2.03414 19.5699C2.07747 19.632 2.12698 19.6961 2.17443 19.7561C2.20169 19.7969 2.23203 19.8357 2.2652 19.8722C2.33328 19.9563 2.3993 20.0404 2.4715 20.1224C2.5272 20.1905 2.58496 20.2586 2.64685 20.3226C2.70874 20.3867 2.73969 20.4287 2.7892 20.4808L2.93361 20.6349C2.9955 20.701 3.06152 20.767 3.12754 20.8351L3.23275 20.9372L3.27607 20.9772C3.31527 21.0153 3.3524 21.0513 3.3916 21.0853C3.4308 21.1194 3.45762 21.1474 3.48857 21.1754H3.50094C3.54839 21.2215 3.59996 21.2635 3.64947 21.3075C3.68739 21.3437 3.72734 21.3778 3.76913 21.4096C3.79802 21.4377 3.83309 21.4657 3.8661 21.4917C3.88242 21.5067 3.89965 21.5207 3.91768 21.5337C3.93133 21.5474 3.94655 21.5595 3.96306 21.5698C3.99194 21.5958 4.02495 21.6198 4.05383 21.6438L4.08272 21.6679L4.14667 21.7179L4.20649 21.7619C4.30345 21.836 4.40041 21.9081 4.5015 21.9781C4.60259 22.0482 4.71812 22.1303 4.82953 22.2024L4.85222 22.2164L4.86872 22.2264C4.96981 22.2924 5.07502 22.3565 5.17611 22.4165L5.19055 22.4266L5.33703 22.5126C5.38654 22.5433 5.43605 22.5714 5.48556 22.5967L5.56809 22.6408L5.70631 22.7168L5.84453 22.7889H5.86103C5.93324 22.8249 6.00132 22.861 6.06734 22.895C6.10274 22.9143 6.13924 22.9317 6.17667 22.947C6.27982 22.9971 6.38298 23.0431 6.49232 23.0892C6.60166 23.1352 6.74401 23.1953 6.86985 23.2453L6.91523 23.2613C7.02663 23.3054 7.14011 23.3474 7.2577 23.3874C7.32991 23.4135 7.40829 23.4395 7.48463 23.4615C7.49721 23.4674 7.51033 23.4721 7.52382 23.4755L7.55271 23.4855L7.61666 23.5055C7.75282 23.5476 7.89104 23.5876 8.02927 23.6257L8.08909 23.6417L8.29539 23.6937C8.44599 23.7297 8.59659 23.7638 8.74719 23.7938L9.003 23.8439H9.03395C9.20931 23.8739 9.3826 23.8999 9.55589 23.9219C9.73743 23.9439 9.92517 23.964 10.1088 23.976L10.3295 23.99C10.3893 23.99 10.4471 23.99 10.509 23.99C10.6555 23.99 10.8081 24 10.9587 24C11.1093 24 11.2187 24 11.3466 24H11.3755C11.5075 24 11.6416 23.988 11.7736 23.978H11.8046C11.918 23.978 12.0336 23.96 12.147 23.948H12.2192C12.3451 23.9339 12.4668 23.9179 12.5865 23.8999C12.8196 23.8659 13.0465 23.8258 13.2734 23.7778H13.2838C13.3642 23.7618 13.4488 23.7438 13.5293 23.7237H13.5519H13.587L13.7087 23.6937C13.7974 23.6737 13.88 23.6517 13.9646 23.6277C14.0491 23.6036 14.1853 23.5636 14.2946 23.5296L14.6206 23.4255L14.9404 23.3094C15.0476 23.2693 15.1467 23.2273 15.2601 23.1832C15.4293 23.1132 15.5964 23.0391 15.7594 22.961C15.8687 22.909 15.9801 22.8529 16.0895 22.7969L16.2277 22.7268L16.4938 22.5787L16.7764 22.4125C16.8734 22.3545 16.9662 22.2944 17.0611 22.2324L17.0921 22.2144L17.3438 22.0442C17.5336 21.9121 17.7213 21.772 17.9029 21.6278L18.1422 21.4276C19.8231 20.03 21.0292 18.1717 21.6018 16.0968C21.6018 16.0667 21.7978 15.3481 21.8391 15.0118L20.1268 15.0018L16.7682 14.9837C16.6133 15.3865 16.4327 15.7797 16.2277 16.1608C15.4864 17.4646 14.2604 18.4448 12.7998 18.9016C11.3393 19.3583 9.75416 19.2572 8.3678 18.6188C6.98145 17.9804 5.89832 16.8528 5.33934 15.4661C4.78036 14.0793 4.78765 12.5379 5.35972 11.1562C5.37829 11.1162 5.39479 11.0741 5.41748 11.0321C5.4535 10.9415 5.49555 10.8532 5.54333 10.7679C5.56396 10.7218 5.58871 10.6758 5.61347 10.6277C5.63823 10.5797 5.63616 10.5857 5.64854 10.5637C5.74962 10.3635 5.85484 10.1633 5.99925 9.96313C7.24944 7.98131 9.94787 5.32889 15.5448 4.88248C15.9574 4.84845 16.3969 4.82842 16.8487 4.82042H16.9889V12.9639L22 12.9399Z" fill="url(#paint1_linear_528_3816)"/>
<defs>
<linearGradient id="paint0_linear_528_3816" x1="-5.49739" y1="-6.73276" x2="6.35728" y2="-6.68318" gradientUnits="userSpaceOnUse">
<stop stop-color="#3EB9FF"/>
<stop offset="1" stop-color="#0074ED"/>
</linearGradient>
<linearGradient id="paint1_linear_528_3816" x1="10.4168" y1="24" x2="-6.95451" y2="13.7212" gradientUnits="userSpaceOnUse">
<stop stop-color="#3EB9FF"/>
<stop offset="1" stop-color="#0074ED"/>
</linearGradient>
</defs>
</svg>
